<svg width="162" height="122" viewBox="0 0 162 122" fill="none" xmlns="http://www.w3.org/2000/svg">
<path d="M1 9C1 4.58172 4.58172 1 9 1H153C157.418 1 161 4.58172 161 9V113C161 117.418 157.418 121 153 121H9C4.58172 121 1 117.418 1 113V9Z" fill="white" fill-opacity="0.2"/>
<path d="M9 0.571429C4.34503 0.571429 0.571429 4.34503 0.571429 9V113C0.571429 117.655 4.34503 121.429 9 121.429H153C157.655 121.429 161.429 117.655 161.429 113V9C161.429 4.34503 157.655 0.571429 153 0.571429H9Z" stroke="white" stroke-opacity="0.4" stroke-width="0.857143"/>
<g opacity="0.7">
<path d="M14.3332 10.9998C14.3332 12.8408 12.8408 14.3332 10.9998 14.3332C9.15889 14.3332 7.6665 12.8408 7.6665 10.9998C7.6665 9.15889 9.15889 7.6665 10.9998 7.6665C12.8408 7.6665 14.3332 9.15889 14.3332 10.9998Z" fill="white"/>
<path d="M24.9998 10.9998C24.9998 12.8408 23.5075 14.3332 21.6665 14.3332C19.8256 14.3332 18.3332 12.8408 18.3332 10.9998C18.3332 9.15889 19.8256 7.6665 21.6665 7.6665C23.5075 7.6665 24.9998 9.15889 24.9998 10.9998Z" fill="white"/>
<path d="M35.6665 10.9998C35.6665 12.8408 34.1741 14.3332 32.3332 14.3332C30.4922 14.3332 28.9998 12.8408 28.9998 10.9998C28.9998 9.15889 30.4922 7.6665 32.3332 7.6665C34.1741 7.6665 35.6665 9.15889 35.6665 10.9998Z" fill="white"/>
</g>
<path d="M73.3752 50.259C72.8035 48.8388 70.7524 48.8388 70.1807 50.259L67.1953 57.6764C67.0208 58.11 66.6705 58.4532 66.228 58.6242L58.6583 61.5496C57.209 62.1098 57.209 64.1197 58.6583 64.6798L66.228 67.6052C66.6705 67.7762 67.0208 68.1194 67.1953 68.553L70.1807 75.9704C70.7524 77.3906 72.8035 77.3906 73.3752 75.9705L76.3606 68.553C76.5351 68.1194 76.8854 67.7762 77.3279 67.6052L84.8976 64.6798C86.347 64.1197 86.347 62.1098 84.8976 61.5496L77.3279 58.6242C76.8854 58.4532 76.5351 58.11 76.3606 57.6764L73.3752 50.259Z" fill="white"/>
<path opacity="0.4" d="M96.3281 71.3575C96.0776 70.735 95.1784 70.735 94.9278 71.3575L93.6191 74.609C93.5426 74.7991 93.3891 74.9495 93.1951 75.0245L89.8769 76.3069C89.2416 76.5524 89.2416 77.4335 89.8769 77.679L93.1951 78.9614C93.3891 79.0363 93.5426 79.1868 93.6191 79.3769L94.9278 82.6283C95.1784 83.2509 96.0776 83.2509 96.3281 82.6283L97.6368 79.3769C97.7133 79.1868 97.8669 79.0363 98.0608 78.9614L101.379 77.679C102.014 77.4335 102.014 76.5524 101.379 76.3069L98.0608 75.0245C97.8669 74.9495 97.7133 74.7991 97.6368 74.609L96.3281 71.3575Z" fill="white"/>
<path opacity="0.7" d="M96.6458 40.2454C96.2841 39.3466 94.986 39.3466 94.6243 40.2454L92.735 44.9394C92.6245 45.2138 92.4029 45.431 92.1228 45.5392L87.3324 47.3905C86.4152 47.745 86.4152 49.0169 87.3324 49.3714L92.1228 51.2227C92.4029 51.3309 92.6245 51.5481 92.735 51.8225L94.6243 56.5165C94.986 57.4153 96.2841 57.4153 96.6458 56.5165L98.5351 51.8225C98.6456 51.5481 98.8672 51.3309 99.1473 51.2227L103.938 49.3714C104.855 49.0169 104.855 47.745 103.938 47.3905L99.1473 45.5392C98.8672 45.431 98.6456 45.2138 98.5351 44.9394L96.6458 40.2454Z" fill="white"/>
</svg>
