<svg width="280" height="212" viewBox="0 0 280 212" fill="none" xmlns="http://www.w3.org/2000/svg">
<rect width="280" height="211.963" fill="white"/>
<path d="M60 54C60 49.5817 63.5817 46 68 46H212C216.418 46 220 49.5817 220 54V158C220 162.418 216.418 166 212 166H68C63.5817 166 60 162.418 60 158V54Z" stroke="#D5DFFF"/>
<g opacity="0.7">
<path d="M73.3337 55.9993C73.3337 57.8403 71.8413 59.3327 70.0003 59.3327C68.1594 59.3327 66.667 57.8403 66.667 55.9993C66.667 54.1584 68.1594 52.666 70.0003 52.666C71.8413 52.666 73.3337 54.1584 73.3337 55.9993Z" fill="#D5DFFF"/>
<path d="M84.0003 55.9993C84.0003 57.8403 82.5079 59.3327 80.667 59.3327C78.826 59.3327 77.3337 57.8403 77.3337 55.9993C77.3337 54.1584 78.826 52.666 80.667 52.666C82.5079 52.666 84.0003 54.1584 84.0003 55.9993Z" fill="#D5DFFF"/>
<path d="M94.667 55.9993C94.667 57.8403 93.1746 59.3327 91.3337 59.3327C89.4927 59.3327 88.0003 57.8403 88.0003 55.9993C88.0003 54.1584 89.4927 52.666 91.3337 52.666C93.1746 52.666 94.667 54.1584 94.667 55.9993Z" fill="#D5DFFF"/>
</g>
<path d="M132.375 95.2585C131.804 93.8383 129.752 93.8383 129.181 95.2585L126.195 102.676C126.021 103.11 125.671 103.453 125.228 103.624L117.658 106.549C116.209 107.109 116.209 109.119 117.658 109.679L125.228 112.605C125.671 112.776 126.021 113.119 126.195 113.553L129.181 120.97C129.752 122.39 131.804 122.39 132.375 120.97L135.361 113.553C135.535 113.119 135.885 112.776 136.328 112.605L143.898 109.679C145.347 109.119 145.347 107.109 143.898 106.549L136.328 103.624C135.885 103.453 135.535 103.11 135.361 102.676L132.375 95.2585Z" fill="#673DE6"/>
<path d="M155.328 116.358C155.078 115.735 154.178 115.735 153.928 116.358L152.619 119.609C152.543 119.799 152.389 119.95 152.195 120.025L148.877 121.307C148.242 121.552 148.242 122.433 148.877 122.679L152.195 123.961C152.389 124.036 152.543 124.187 152.619 124.377L153.928 127.628C154.178 128.251 155.078 128.251 155.328 127.628L156.637 124.377C156.713 124.187 156.867 124.036 157.061 123.961L160.379 122.679C161.014 122.433 161.014 121.552 160.379 121.307L157.061 120.025C156.867 119.95 156.713 119.799 156.637 119.609L155.328 116.358Z" fill="#EBE4FF"/>
<path d="M155.646 85.2463C155.284 84.3476 153.986 84.3476 153.624 85.2463L151.735 89.9404C151.625 90.2148 151.403 90.432 151.123 90.5402L146.332 92.3915C145.415 92.7459 145.415 94.0179 146.332 94.3724L151.123 96.2237C151.403 96.3319 151.625 96.5491 151.735 96.8235L153.624 101.518C153.986 102.416 155.284 102.416 155.646 101.518L157.535 96.8235C157.646 96.5491 157.867 96.3319 158.147 96.2237L162.938 94.3724C163.855 94.0179 163.855 92.7459 162.938 92.3915L158.147 90.5402C157.867 90.432 157.646 90.2148 157.535 89.9404L155.646 85.2463Z" fill="#B39EF3"/>
<path d="M29.4392 79.4094C28.7884 79.1267 28.1279 79.7872 28.4105 80.438L29.8867 83.837C29.973 84.0356 29.973 84.2612 29.8867 84.4599L28.4105 87.8589C28.1279 88.5096 28.7884 89.1702 29.4392 88.8875L32.8381 87.4113C33.0368 87.325 33.2624 87.325 33.4611 87.4113L36.86 88.8875C37.5108 89.1702 38.1713 88.5096 37.8887 87.8589L36.4125 84.4599C36.3262 84.2612 36.3262 84.0356 36.4125 83.837L37.8887 80.438C38.1713 79.7872 37.5108 79.1267 36.86 79.4094L33.4611 80.8856C33.2624 80.9719 33.0368 80.9719 32.8381 80.8856L29.4392 79.4094Z" fill="#D5DFFF"/>
<path d="M256.197 113.495C255.937 112.835 255.003 112.835 254.742 113.495L253.383 116.942C253.303 117.144 253.144 117.303 252.942 117.383L249.495 118.742C248.835 119.003 248.835 119.937 249.495 120.197L252.942 121.557C253.144 121.636 253.303 121.796 253.383 121.997L254.742 125.444C255.003 126.104 255.937 126.104 256.197 125.444L257.557 121.997C257.636 121.796 257.796 121.636 257.997 121.557L261.444 120.197C262.104 119.937 262.104 119.003 261.444 118.742L257.997 117.383C257.796 117.303 257.636 117.144 257.557 116.942L256.197 113.495Z" fill="#D5DFFF"/>
<circle cx="238.875" cy="136.004" r="2.87544" fill="#D5DFFF"/>
</svg>
