<svg width="1920" height="944" viewBox="0 0 1920 944" fill="none" xmlns="http://www.w3.org/2000/svg">
<g clip-path="url(#clip0_3014_45008)">
<rect width="1920" height="944" rx="16" fill="#1D1E20"/>
<g opacity="0.7" filter="url(#filter0_f_3014_45008)">
<circle cx="291.5" cy="943.5" r="383.5" fill="#673DE6"/>
</g>
<g opacity="0.7" filter="url(#filter1_f_3014_45008)">
<circle cx="1755" cy="14" r="211" fill="#8C85FF"/>
</g>
<mask id="mask0_3014_45008" style="mask-type:alpha" maskUnits="userSpaceOnUse" x="1295" y="551" width="7" height="7">
</mask>
<g mask="url(#mask0_3014_45008)">
<rect x="1296" y="552" width="6" height="6" fill="#727586"/>
</g>
<path fill-rule="evenodd" clip-rule="evenodd" d="M885 54.046V40.0005L892.089 43.7805V50.1086L901.473 50.1132L908.677 54.046H885ZM903.392 48.9506V40L910.673 43.6859V53.1797L903.392 48.9506ZM903.392 66.1177V59.8441L893.936 59.8375C893.945 59.8793 886.612 55.8418 886.612 55.8418L910.673 55.9547V70L903.392 66.1177ZM885 66.1177L885 56.9393L892.089 61.0683V69.8033L885 66.1177Z" fill="white"/>
<path d="M1001.89 52.0326C1002.48 51.3073 1003.42 50.9447 1004.73 50.9447C1005.32 50.9447 1005.87 51.0194 1006.37 51.1692C1006.87 51.3194 1007.31 51.4959 1007.69 51.6996L1008.5 49.4519C1008.41 49.392 1008.25 49.3078 1008.03 49.1999C1007.8 49.0918 1007.52 48.9869 1007.18 48.8853C1006.84 48.7832 1006.43 48.6934 1005.95 48.6152C1005.48 48.5375 1004.95 48.498 1004.36 48.498C1003.49 48.498 1002.68 48.6424 1001.91 48.9303C1001.15 49.218 1000.48 49.6405 999.919 50.198C999.353 50.7553 998.909 51.4363 998.585 52.2393C998.26 53.0427 998.097 53.9659 998.097 55.0093C998.097 56.0404 998.244 56.9577 998.539 57.7605C998.834 58.5637 999.252 59.2414 999.793 59.7927C1000.33 60.3444 1000.99 60.7636 1001.75 61.0518C1002.51 61.3392 1003.36 61.4833 1004.3 61.4833C1005.4 61.4833 1006.32 61.4079 1007.06 61.2583C1007.81 61.1086 1008.35 60.9681 1008.69 60.836V54.6675H1005.87V59.0015C1005.7 59.0377 1005.51 59.0616 1005.29 59.0734C1005.06 59.0852 1004.79 59.0913 1004.48 59.0913C1003.9 59.0913 1003.4 58.9925 1002.97 58.7948C1002.53 58.5969 1002.17 58.318 1001.88 57.9581C1001.6 57.5983 1001.38 57.1697 1001.24 56.6726C1001.09 56.1751 1001.02 55.6201 1001.02 55.0093C1001.02 53.7499 1001.31 52.7581 1001.89 52.0326Z" fill="white"/>
<path d="M957.196 59.0104C956.938 59.0768 956.61 59.1094 956.213 59.1094C955.42 59.1094 954.749 59.0285 954.202 58.8663C953.655 58.7048 953.195 58.5222 952.823 58.318L952.029 60.5479C952.197 60.6442 952.404 60.7458 952.651 60.8539C952.897 60.9618 953.192 61.0637 953.535 61.1595C953.878 61.2553 954.271 61.336 954.716 61.4024C955.161 61.4683 955.66 61.5015 956.213 61.5015C957.86 61.5015 959.093 61.1806 959.911 60.5388C960.728 59.8976 961.137 58.9953 961.137 57.8322C961.137 57.2332 961.059 56.7239 960.903 56.304C960.747 55.8843 960.509 55.5184 960.191 55.2068C959.872 54.8952 959.472 54.6223 958.991 54.3885C958.51 54.1546 957.945 53.9179 957.296 53.6778C956.983 53.5699 956.697 53.4653 956.439 53.3632C956.18 53.2616 955.952 53.1474 955.753 53.0217C955.555 52.8957 955.401 52.7549 955.293 52.5989C955.185 52.4435 955.131 52.2514 955.131 52.0233C955.131 51.6401 955.278 51.3551 955.573 51.1693C955.867 50.9837 956.351 50.8902 957.025 50.8902C957.626 50.8902 958.14 50.9596 958.567 51.0971C958.994 51.2352 959.382 51.3941 959.731 51.5739L960.542 49.3619C960.145 49.1462 959.64 48.948 959.027 48.7682C958.414 48.5886 957.686 48.4981 956.845 48.4981C956.135 48.4981 955.498 48.5856 954.933 48.7591C954.367 48.9334 953.887 49.1816 953.49 49.5055C953.093 49.8297 952.786 50.222 952.57 50.6837C952.353 51.1452 952.245 51.6637 952.245 52.2393C952.245 52.815 952.347 53.3033 952.552 53.7047C952.756 54.1068 953.021 54.4486 953.345 54.7302C953.67 55.0121 954.037 55.246 954.446 55.4316C954.854 55.6172 955.263 55.7824 955.672 55.9257C956.61 56.2381 957.271 56.5285 957.656 56.7986C958.041 57.068 958.233 57.4072 958.233 57.8146C958.233 58.0065 958.203 58.1805 958.143 58.3362C958.083 58.4921 957.974 58.6269 957.818 58.7403C957.662 58.855 957.455 58.9447 957.196 59.0104Z" fill="white"/>
<path fill-rule="evenodd" clip-rule="evenodd" d="M949.138 55.0092C949.138 56.0759 948.978 57.0145 948.66 57.8232C948.341 58.6327 947.905 59.3102 947.352 59.8554C946.799 60.4013 946.14 60.8118 945.377 61.0874C944.614 61.3635 943.793 61.5013 942.915 61.5013C942.061 61.5013 941.256 61.3635 940.498 61.0874C939.741 60.8118 939.079 60.4013 938.514 59.8554C937.949 59.3102 937.504 58.6327 937.179 57.8232C936.855 57.0145 936.692 56.0759 936.692 55.0092C936.692 53.9419 936.861 53.0036 937.197 52.1946C937.534 51.3851 937.988 50.7046 938.559 50.1531C939.13 49.6017 939.792 49.1882 940.543 48.9124C941.294 48.6362 942.085 48.4982 942.915 48.4982C943.769 48.4982 944.574 48.6362 945.332 48.9124C946.09 49.1882 946.751 49.6017 947.316 50.1531C947.881 50.7046 948.326 51.3851 948.651 52.1946C948.976 53.0036 949.138 53.9419 949.138 55.0092ZM939.596 55.0092C939.596 55.6203 939.671 56.1718 939.821 56.6634C939.971 57.1553 940.188 57.5778 940.471 57.9313C940.753 58.2854 941.099 58.5578 941.508 58.7494C941.916 58.9418 942.385 59.0378 942.915 59.0378C943.431 59.0378 943.897 58.9418 944.313 58.7494C944.727 58.5578 945.076 58.2854 945.358 57.9313C945.641 57.5778 945.858 57.1553 946.008 56.6634C946.158 56.1718 946.233 55.6203 946.233 55.0092C946.233 54.3973 946.158 53.8428 946.008 53.3452C945.858 52.8477 945.641 52.4225 945.358 52.0684C945.076 51.7148 944.727 51.4417 944.313 51.2503C943.897 51.0585 943.431 50.9627 942.915 50.9627C942.385 50.9627 941.916 51.0615 941.508 51.2591C941.099 51.4571 940.753 51.7329 940.471 52.0868C940.188 52.4403 939.971 52.8658 939.821 53.3633C939.671 53.8612 939.596 54.4097 939.596 55.0092Z" fill="white"/>
<path d="M930.212 48.7864H933.026V61.2494H930.212V55.9621H925.487V61.2494H922.673V48.7864H925.487V53.5519H930.212V48.7864Z" fill="white"/>
<path d="M973.533 48.7866V51.1786H969.764V61.2495H966.95V51.1786H963.18V48.7866H973.533Z" fill="white"/>
<path d="M979.472 61.2498H976.658V48.7866H979.472V61.2498Z" fill="white"/>
<path d="M992.068 61.2495C991.263 59.8229 990.391 58.4144 989.453 57.0232C988.515 55.6323 987.517 54.3196 986.459 53.0846V61.2495H983.681V48.7866H985.971C986.368 49.1819 986.807 49.6675 987.288 50.2431C987.769 50.8187 988.259 51.4334 988.758 52.0867C989.257 52.74 989.753 53.4175 990.246 54.1186C990.739 54.82 991.202 55.4942 991.635 56.1418V48.7866H994.431V61.2495H992.068Z" fill="white"/>
<path d="M1012.62 61.2495V48.7866H1021.06V51.1424H1015.44V53.588H1020.43V55.8903H1015.44V58.8937H1021.48V61.2495H1012.62Z" fill="white"/>
<path fill-rule="evenodd" clip-rule="evenodd" d="M1032.85 49.6405C1031.85 48.9748 1030.41 48.6424 1028.54 48.6424C1028.02 48.6424 1027.43 48.6663 1026.78 48.7146C1026.12 48.7621 1025.49 48.8466 1024.87 48.9658V61.2495H1027.69V56.699H1029.08C1029.32 56.9872 1029.56 57.3078 1029.8 57.6619C1030.04 58.0155 1030.29 58.3897 1030.53 58.7855C1030.78 59.1813 1031.02 59.5892 1031.26 60.0087C1031.49 60.4284 1031.73 60.8418 1031.96 61.2495H1035.1C1034.88 60.794 1034.65 60.3296 1034.4 59.8555C1034.15 59.3822 1033.88 58.9268 1033.61 58.4892C1033.34 58.0517 1033.07 57.632 1032.79 57.2301C1032.52 56.8285 1032.25 56.4719 1032 56.1598C1032.76 55.8485 1033.34 55.4195 1033.74 54.8743C1034.14 54.3288 1034.34 53.6179 1034.34 52.743C1034.34 51.34 1033.84 50.3059 1032.85 49.6405ZM1028.15 51.0523C1028.31 51.0405 1028.49 51.0344 1028.7 51.0344C1029.6 51.0344 1030.28 51.1635 1030.74 51.4207C1031.21 51.6792 1031.44 52.1133 1031.44 52.7249C1031.44 53.3606 1031.21 53.8105 1030.75 54.0738C1030.3 54.3379 1029.54 54.4691 1028.48 54.4691H1027.69V51.0883C1027.83 51.0767 1027.99 51.0646 1028.15 51.0523Z" fill="white"/>
</g>
<defs>
<filter id="filter0_f_3014_45008" x="-632" y="20" width="1847" height="1847" filterUnits="userSpaceOnUse" color-interpolation-filters="sRGB">
<feFlood flood-opacity="0" result="BackgroundImageFix"/>
<feBlend mode="normal" in="SourceGraphic" in2="BackgroundImageFix" result="shape"/>
<feGaussianBlur stdDeviation="270" result="effect1_foregroundBlur_3014_45008"/>
</filter>
<filter id="filter1_f_3014_45008" x="1174" y="-567" width="1162" height="1162" filterUnits="userSpaceOnUse" color-interpolation-filters="sRGB">
<feFlood flood-opacity="0" result="BackgroundImageFix"/>
<feBlend mode="normal" in="SourceGraphic" in2="BackgroundImageFix" result="shape"/>
<feGaussianBlur stdDeviation="185" result="effect1_foregroundBlur_3014_45008"/>
</filter>
<clipPath id="clip0_3014_45008">
<rect width="1920" height="944" rx="16" fill="white"/>
</clipPath>
</defs>
</svg>
